#!OML:ASF F:\VICON\USERDATA\INSTALL\rory3\rory3.ASF
:FULLY-SPECIFIED
:DEGREES
177
root 0.5796117770505005 17.77717254537406 42.61941355620386 2.2912714334299267 1.6623115745067643 0.21121624815632623
lfemur -20.56920325586391 1.2453880343574406 -20.236217026816355
ltibia 57.41783375079963
lfoot 1.583301220889187 -10.036628553114248
ltoes -8.602440201556913
rfemur -15.95269041022873 3.828755615303547 29.189362345378093
rtibia 50.32679998700844
rfoot -4.370528461589955 -6.7736578260086455
rtoes -2.912373513561729
lowerback 13.502808463924673 0.21561816346891527 1.2888591818961683
upperback -0.5019808747614738 1.5916209844355325 1.798161038440628
thorax -8.202754744897128 1.103237216161385 0.7235017136394623
lowerneck -18.610272254480925 -4.226640902060707 -2.2293287729046387
upperneck 13.958246681141402 -5.326394927450233 2.8589886615815017
head 7.405029799641911 -2.4618756560029467 0.6772726495886467
lclavicle 3.0724827264545893e-16 -4.3067221206564905e-16
lhumerus -46.994800943830285 -14.002072900307168 98.33399162577398
lradius 109.31479770818243
lwrist 32.4251309047407
lhand -25.690181497504614 3.1975747251571174
lfingers 7.125020000000001
lthumb 0.6296830650254336 32.67250324934997
rclavicle 3.0728743657241976e-16 -4.3064985682852227e-16
rhumerus -46.281175785411406 7.206531917589171 -95.63700378439565
rradius 103.55588843379493
rwrist -19.24562312455476
rhand -18.457700730819802 37.5972606375307
rfingers 7.125020000000001
rthumb 7.953126715118772 7.505527374940353
178
root 0.539238518450627 17.672300391273346 37.47766934765149 1.9510553695766928 0.9259077366196358 -0.4031911243873725
lfemur -20.745264747485933 0.975166687152642 -20.740797689302024
ltibia 57.551260680232666
lfoot 0.9620223494342959 -10.278815359824595
ltoes -9.156160567847866
rfemur -18.044756148479653 3.618426671443716 28.72595159735977
rtibia 51.0045063562936
rfoot -3.3590922144036934 -6.648802224143938
rtoes -3.8334025728667367
lowerback 13.442770034260322 0.26663471308994957 1.388671761493098
upperback -0.5111952508948749 1.637556674610619 1.7651360293855478
thorax -8.208627284907923 1.1935786299639277 0.7496525102353802
lowerneck -18.599232316482407 -4.316028310594502 -2.2479913561002802
upperneck 13.868811042106833 -5.446219196399313 2.854836356679616
head 7.400454090410338 -2.4917701766586253 0.6685494311278286
lclavicle 3.0724827264545893e-16 -4.3067221206564905e-16
lhumerus -47.769584172033305 -14.26654884981896 98.24472622366714
lradius 109.39737064745347
lwrist 32.408566975730906
lhand -25.78143181196598 3.061010003092348
lfingers 7.125020000000001
lthumb 0.6599119683358381 32.73186444694325
rclavicle 3.0728743657241976e-16 -4.3064985682852227e-16
rhumerus -46.26313659378588 7.187785886485294 -95.6887602656979
rradius 103.4017063720793
rwrist -19.257437087243943
rhand -18.518523495443095 37.5164869877713
rfingers 7.125020000000001
rthumb 7.9179680672670605 7.473970488745213
179
root 0.5668322554502967 17.760424615982345 40.68599265808123 2.2438277012520436 1.3847516761843672 -0.017607169257538136
lfemur -20.497198046248435 0.8871231172738606 -20.601815541450303
ltibia 56.93430532379709
lfoot -0.14929524249466386 -10.056046846900873
ltoes -9.77533452572428
rfemur -14.961710964985212 4.018725385989853 29.321212615966004
rtibia 51.800804967276704
rfoot -2.5798338693402063 -6.425699484118324
rtoes -3.9019816467490545
lowerback 13.348764773028266 0.3056445323804452 1.48791037526117
upperback -0.49597894354924077 1.7585506278344183 1.7488233482600608
thorax -8.244698017828547 1.211610778091852 0.6298308101779615
lowerneck -18.569280746258727 -4.378638086803633 -2.2640088892421337
upperneck 13.82060571216397 -5.5437008971641415 2.89817580302897
head 7.412361119375659 -2.495059242353024 0.672634905575492
lclavicle 3.0724827264545893e-16 -4.3067221206564905e-16
lhumerus -47.70865036087266 -14.34653650441972 98.21655221599232
lradius 109.46939456702104
lwrist 32.37100440901918
lhand -25.765083926052228 3.2075543655081313
lfingers 7.125020000000001
lthumb 0.6436738055831903 32.778324391770205
rclavicle 3.0728743657241976e-16 -4.3064985682852227e-16
rhumerus -45.62580173987321 7.346837198664632 -95.61400356709251
rradius 103.41269168941251
rwrist -19.280693747518868
rhand -18.466836647391233 37.54371958638028
rfingers 7.125020000000001
rthumb 7.924149317165086 7.491103367122214
180
root 0.5842235544176926 17.822675332621085 41.51517008079023 2.325125918804532 1.5287024804062406 0.06971193987955182
lfemur -19.438972458051087 0.8357999989214896 -20.508940420282812
ltibia 56.10200104719928
lfoot 0.36265665151238924 -9.473534147918224
ltoes -10.35946349858113
rfemur -12.921180431725997 4.382064947081099 29.719534044944776
rtibia 52.882497950571874
rfoot -2.0890809607568643 -6.163097466671386
rtoes -4.231174288296639
lowerback 13.366608000120127 0.42497395306497837 1.7512994968939437
upperback -0.5100234076451147 1.7784315052627524 1.6761624976163045
thorax -8.229734230852905 1.2199659428435101 0.5745212194522408
lowerneck -18.54678586758861 -4.4299962867417015 -2.27802680301003
upperneck 13.771002500502199 -5.6252860937974685 2.9318193199744975
head 7.41298988780095 -2.4991136985229336 0.6701427415422501
lclavicle 3.0724827264545893e-16 -4.3067221206564905e-16
lhumerus -47.41341553758422 -14.067483606912878 98.36446074601578
lradius 109.34921658433618
lwrist 32.34924089971849
lhand -25.849651560640936 3.1028914406518555
lfingers 7.125020000000001
lthumb 0.6714201674691616 32.91851674115738
rclavicle 3.0728743657241976e-16 -4.3064985682852227e-16
rhumerus -45.50065437061762 7.402574885940808 -95.64687224638826
rradius 103.62238216423678
rwrist -19.28691300952275
rhand -18.484674080382522 37.55886636407068
rfingers 7.125020000000001
rthumb 7.913615051583314 7.525613969617022
